<svg xmlns="http://www.w3.org/2000/svg" viewBox="0 0 64 64"><defs><linearGradient id="ui-shield-g1" x1="0" y1="0" x2="0" y2="1"><stop offset="0" stop-color="#c8d0de"/><stop offset="1" stop-color="#8e96a8"/></linearGradient></defs><path d="M32 4 L56 12 V32 C56 46 46 56 32 61 C18 56 8 46 8 32 V12Z" fill="url(#ui-shield-g1)" stroke="#14101c" stroke-width="3" stroke-linejoin="round" stroke-linecap="round"/><path d="M32 4 L56 12 V32 C56 46 46 56 32 61Z" fill="#5d6577" opacity=".55"/><path d="M32 12 L48 17 V32 C48 41 41 48 32 52 C23 48 16 41 16 32 V17Z" fill="#c0392b" stroke="#14101c" stroke-width="3" stroke-linejoin="round"/><path d="M32 18 V46 M20 28 H44" stroke="#f2c94c" stroke-width="4" stroke-linecap="round"/><path d="M13 14 L26 9" stroke="#fff" stroke-width="3" stroke-linecap="round" opacity=".7"/></svg>
