<svg xmlns="http://www.w3.org/2000/svg" viewBox="0 0 200 240">
<defs>
<linearGradient id="bans-g1" x1="0" y1="0" x2="0" y2="1"><stop offset="0" stop-color="#e8f0ff" stop-opacity=".95"/><stop offset="1" stop-color="#7a9ac8" stop-opacity=".55"/></linearGradient>
<linearGradient id="bans-g2" x1="0" y1="0" x2="0" y2="1"><stop offset="0" stop-color="#cfe0ff"/><stop offset="1" stop-color="#9ab4dc"/></linearGradient>
</defs>
<g stroke="#14101c" stroke-width="4.5" stroke-linejoin="round" stroke-linecap="round">
<g class="part-extra">
<path d="M126 70 Q176 90 168 150 Q164 190 184 214 Q150 206 140 180 Q130 130 118 100Z" fill="#9ab4dc" opacity=".8"/>
<path d="M60 90 Q22 110 40 160 Q46 190 30 206 Q66 198 74 170Z" fill="#9ab4dc" opacity=".8"/>
</g>
<g class="part-body">
<path d="M74 106 Q50 160 56 200 L70 190 L80 218 L94 196 L104 224 L118 196 L130 216 L134 190 L146 200 Q148 150 126 104 Q100 92 74 106Z" fill="url(#bans-g1)"/>
<path d="M82 130 Q100 146 120 130 M78 160 Q100 176 124 160" fill="none" stroke="#fff" stroke-width="3" opacity=".6"/>
<path d="M92 112 L96 190 M108 112 L110 196" stroke="#7a9ac8" stroke-width="3" fill="none" opacity=".5"/>
</g>
<g class="part-arm-l">
<path d="M78 112 Q46 106 24 134 L10 142 L16 156 L32 152 L42 148 Q70 140 88 128Z" fill="url(#bans-g2)"/>
<path d="M10 142 L2 134 M14 150 L0 152 M18 156 L8 166" stroke-width="3" fill="none"/>
</g>
<g class="part-arm-r">
<path d="M122 112 Q150 108 168 130 L180 134 L174 148 L160 146 L150 144 Q130 140 116 128Z" fill="url(#bans-g2)"/>
<path d="M180 134 L190 128 M176 144 L190 146" stroke-width="3" fill="none"/>
</g>
<g class="part-head">
<path d="M52 56 Q54 18 100 14 Q146 18 146 60 Q150 100 128 140 Q122 100 100 98 Q78 100 74 140 Q52 100 52 56Z" fill="#6a7a9a" stroke-width="4"/>
<path d="M70 58 Q70 34 100 32 Q130 34 130 58 Q132 90 100 100 Q68 90 70 58Z" fill="url(#bans-g2)"/>
<ellipse cx="86" cy="62" rx="7" ry="10" fill="#14101c" stroke-width="2.5"/>
<ellipse cx="114" cy="62" rx="7" ry="10" fill="#14101c" stroke-width="2.5"/>
<circle cx="86" cy="64" r="3" fill="#7affc8" stroke="none"/><circle cx="114" cy="64" r="3" fill="#7affc8" stroke="none"/>
<path d="M88 76 Q100 76 112 76 Q114 98 100 98 Q86 98 88 76Z" fill="#14101c" stroke-width="3.5"/>
<path d="M92 90 Q100 94 108 90" fill="none" stroke="#7a9ac8" stroke-width="3"/>
<path d="M76 46 L92 52 M124 46 L108 52" fill="none" stroke-width="3.5"/>
<path d="M86 24 Q100 18 114 24" fill="none" stroke="#fff" stroke-width="3" opacity=".7"/>
</g>
</g>
</svg>
