<svg xmlns="http://www.w3.org/2000/svg" viewBox="0 0 64 64"><g fill="none" stroke="#14101c" stroke-width="3" stroke-linejoin="round" stroke-linecap="round"><defs><linearGradient id="backstab-g1" x1="0" y1="0" x2="0" y2="1"><stop offset="0" stop-color="#4a3a6a"/><stop offset="1" stop-color="#1e1830"/></linearGradient><linearGradient id="backstab-g2" x1="0" y1="0" x2="0" y2="1"><stop offset="0" stop-color="#4a3a6a"/><stop offset="1" stop-color="#1e1830"/></linearGradient><linearGradient id="backstab-g3" x1="0" y1="0" x2="0" y2="1"><stop offset="0" stop-color="#ffffff"/><stop offset="1" stop-color="#8e96a8"/></linearGradient><linearGradient id="backstab-g4" x1="0" y1="0" x2="0" y2="1"><stop offset="0" stop-color="#ffffff"/><stop offset="1" stop-color="#8e96a8"/></linearGradient><linearGradient id="backstab-g5" x1="0" y1="0" x2="0" y2="1"><stop offset="0" stop-color="#ff6a6a"/><stop offset="1" stop-color="#8f1f26"/></linearGradient><linearGradient id="backstab-g6" x1="0" y1="0" x2="0" y2="1"><stop offset="0" stop-color="#ff6a6a"/><stop offset="1" stop-color="#8f1f26"/></linearGradient></defs><path d="M6 60V46C6 36 14 32 22 32C30 32 38 36 38 46V60Z" fill="url(#backstab-g1)"/><circle cx="22" cy="22" r="9" fill="url(#backstab-g2)"/><g transform="translate(18 -6) rotate(0 32 32) scale(0.8)" stroke-width="3.75"><g transform="rotate(200 32 32)"><path d="M32 3L38 12V36H26V12Z" fill="url(#backstab-g4)"/><path d="M32 11L32 33" fill="none" stroke="#ffffff" stroke-width="2" opacity="0.8"/><rect x="21" y="36" width="22" height="5" rx="2.5" fill="#f2c94c"/><rect x="29" y="41" width="6" height="12" rx="1" fill="#8a5a35"/><circle cx="32" cy="56" r="3.5" fill="#f2c94c"/></g></g><g transform="translate(44 40) rotate(0 32 32) scale(0.3)" stroke-width="10.00"><path d="M32 5C32 5 13 28 13 41C13 52 21 59 32 59C43 59 51 52 51 41C51 28 32 5 32 5Z" fill="url(#backstab-g5)"/></g><g transform="translate(52 48) rotate(0 32 32) scale(0.2)" stroke-width="15.00"><path d="M32 5C32 5 13 28 13 41C13 52 21 59 32 59C43 59 51 52 51 41C51 28 32 5 32 5Z" fill="url(#backstab-g6)"/></g></g></svg>
