<svg xmlns="http://www.w3.org/2000/svg" viewBox="0 0 64 64"><g fill="none" stroke="#14101c" stroke-width="3" stroke-linejoin="round" stroke-linecap="round"><defs><linearGradient id="bless-g1" x1="0" y1="0" x2="0" y2="1"><stop offset="0" stop-color="#fff6c8"/><stop offset="1" stop-color="#f2c94c"/></linearGradient></defs><ellipse cx="32" cy="13" rx="17" ry="6" fill="none" stroke="#14101c" stroke-width="8"/><ellipse cx="32" cy="13" rx="17" ry="6" fill="none" stroke="#f2c94c" stroke-width="4.5"/><path d="M32 16Q32 38 54 38Q32 38 32 60Q32 38 10 38Q32 38 32 16Z" fill="url(#bless-g1)" stroke-width="3"/><path d="M12 46Q12 52 18 52Q12 52 12 58Q12 52 6 52Q12 52 12 46Z" fill="#ffffff" stroke-width="2"/><path d="M52 44Q52 50 58 50Q52 50 52 56Q52 50 46 50Q52 50 52 44Z" fill="#ffffff" stroke-width="2"/><circle cx="32" cy="38" r="4" fill="#ffffff" stroke-width="0"/></g></svg>
