<svg xmlns="http://www.w3.org/2000/svg" viewBox="0 0 64 64"><g fill="none" stroke="#14101c" stroke-width="3" stroke-linejoin="round" stroke-linecap="round"><defs><linearGradient id="whirlwind-g1" x1="0" y1="0" x2="0" y2="1"><stop offset="0" stop-color="#ffffff"/><stop offset="1" stop-color="#8e96a8"/></linearGradient><linearGradient id="whirlwind-g2" x1="0" y1="0" x2="0" y2="1"><stop offset="0" stop-color="#ffffff"/><stop offset="1" stop-color="#8e96a8"/></linearGradient><linearGradient id="whirlwind-g3" x1="0" y1="0" x2="0" y2="1"><stop offset="0" stop-color="#ffffff"/><stop offset="1" stop-color="#8e96a8"/></linearGradient><linearGradient id="whirlwind-g4" x1="0" y1="0" x2="0" y2="1"><stop offset="0" stop-color="#f2c94c"/><stop offset="1" stop-color="#c9962b"/></linearGradient></defs><g transform="rotate(0 32 32)"><path d="M32 4C54 4 62 28 48 44C52 30 46 22 32 22Z" fill="url(#whirlwind-g1)"/></g><g transform="rotate(120 32 32)"><path d="M32 4C54 4 62 28 48 44C52 30 46 22 32 22Z" fill="url(#whirlwind-g2)"/></g><g transform="rotate(240 32 32)"><path d="M32 4C54 4 62 28 48 44C52 30 46 22 32 22Z" fill="url(#whirlwind-g3)"/></g><circle cx="32" cy="32" r="7" fill="url(#whirlwind-g4)" stroke-width="2.5"/><path d="M44 12C52 16 56 22 57 28" fill="none" stroke="#ffffff" stroke-width="2.5" opacity="0.9"/></g></svg>
