<svg xmlns="http://www.w3.org/2000/svg" viewBox="0 0 64 64"><path d="M22 6 Q32 12 42 6 L38 16 H26Z" fill="#8a5a36" stroke="#14101c" stroke-width="3" stroke-linejoin="round" stroke-linecap="round"/><path d="M26 16 C8 28 6 40 10 50 C14 60 50 60 54 50 C58 40 56 28 38 16Z" fill="#b9936b" stroke="#14101c" stroke-width="3" stroke-linejoin="round" stroke-linecap="round"/><path d="M38 16 C54 28 56 40 54 50 C52 56 44 58 40 58 C50 50 50 30 36 18Z" fill="#8a6a46"/><path d="M24 17 H40" stroke="#c0392b" stroke-width="5" stroke-linecap="round"/><path d="M24 17 H40" stroke="#14101c" stroke-width="1" opacity=".0"/><circle cx="32" cy="38" r="11" fill="#f2c94c" stroke="#14101c" stroke-width="3" stroke-linejoin="round" stroke-linecap="round"/><path d="M32 31 V45 M27 35 Q32 32 37 35 M27 41 Q32 44 37 41" stroke="#b48a1a" stroke-width="2.5" fill="none" stroke-linecap="round"/><path d="M14 30 Q12 36 14 42" stroke="#e8d0a8" stroke-width="2.5" fill="none" stroke-linecap="round" opacity=".7"/></svg>
